<svg width="20" height="26" viewBox="0 0 20 26" fill="none" xmlns="http://www.w3.org/2000/svg">
<path fill-rule="evenodd" clip-rule="evenodd" d="M9.17739 0.54054C9.543 -0.180181 10.457 -0.180179 10.8226 0.540541L13.5921 6H19.0487C19.7799 6 20.2369 6.9009 19.8713 7.62162L17.143 13L19.8713 18.3784C20.2369 19.0991 19.7799 20 19.0487 20H13.5921L10.8226 25.4595C10.457 26.1802 9.543 26.1802 9.17739 25.4595L6.40794 20H0.951286C0.220076 20 -0.236928 19.0991 0.128676 18.3784L2.857 13L0.128674 7.62162C-0.236928 6.9009 0.220076 6 0.951285 6H6.40794L9.17739 0.54054ZM3.40258 7.62162H4.49092V7.61839H7.48999V7.62162H12.5V7.62H15.5V7.62162H16.5976C17.3435 7.62162 17.8269 8.40879 17.4894 9.07402L17.3496 9.34964L17.3532 9.35146L15.4963 12.9973L15.4978 13.0002L15.4945 13.0066L16.3189 14.6245L16.3203 14.6217L17.4892 16.926C17.8267 17.5912 17.3433 18.3784 16.5974 18.3784H15.5V18.38H12.5V18.3784H7.30007V18.38H4.30007V18.3784H3.40239C2.65647 18.3784 2.17312 17.5912 2.51057 16.926L3.29177 15.386L4.49589 12.9908L3.11999 10.2896L3.12589 10.2866L2.51076 9.07402C2.17331 8.4088 2.65666 7.62162 3.40258 7.62162ZM8.05325 20L9.10828 22.0798C9.47866 22.8099 10.5215 22.8099 10.8919 22.0798L11.9469 20H8.05325ZM11.9468 6H8.05306L9.10809 3.92021C9.47847 3.19007 10.5213 3.19007 10.8917 3.92021L11.9468 6Z" fill="#AB4CFE" fill-opacity="0.8"/>
<path d="M10.05 16C9.49773 15.7 8.49545 15.4706 7.8 15.4706C7.125 15.4706 6.42955 15.5765 5.85682 15.8412C5.81591 15.8588 5.79545 15.8588 5.75455 15.8588C5.65227 15.8588 5.55 15.7706 5.55 15.6824V10.5294C5.79545 10.3706 6.06136 10.2647 6.36818 10.1765C6.82227 10.0529 7.32136 10 7.8 10C8.59773 10 9.45682 10.1412 10.05 10.5294C10.6432 10.1412 11.5023 10 12.3 10C12.7786 10 13.2777 10.0529 13.7318 10.1765C14.0386 10.2647 14.3045 10.3706 14.55 10.5294V15.6824C14.55 15.7706 14.4477 15.8588 14.3455 15.8588C14.3045 15.8588 14.2841 15.8588 14.2432 15.8412C13.6705 15.5765 12.975 15.4706 12.3 15.4706C11.6045 15.4706 10.6023 15.7 10.05 16ZM9.64091 11.0588C9.08455 10.8471 8.34818 10.7059 7.8 10.7059C7.30909 10.7059 6.81818 10.7588 6.36818 10.8824V14.9412C6.81818 14.8176 7.30909 14.7647 7.8 14.7647C8.34818 14.7647 9.08455 14.9059 9.64091 15.1176V11.0588ZM10.4591 15.1176C11.0155 14.9059 11.7518 14.7647 12.3 14.7647C12.7909 14.7647 13.2818 14.8176 13.7318 14.9412V10.8824C13.2818 10.7588 12.7909 10.7059 12.3 10.7059C11.7518 10.7059 11.0155 10.8471 10.4591 11.0588V15.1176Z" fill="#FFDC34" fill-opacity="0.75"/>
</svg>
