<svg width="90" height="110" viewBox="0 0 90 110" fill="none" xmlns="http://www.w3.org/2000/svg">
<path fill-rule="evenodd" clip-rule="evenodd" d="M41.2983 2.2869C42.9435 -0.762304 47.0565 -0.762298 48.7017 2.28691L61.1643 25.3846H85.7192C89.0097 25.3846 91.0662 29.1961 89.421 32.2453L77.1435 55L89.421 77.7547C91.0662 80.8039 89.0097 84.6154 85.7192 84.6154H61.1643L48.7017 107.713C47.0565 110.762 42.9435 110.762 41.2983 107.713L28.8357 84.6154H4.28079C0.990344 84.6154 -1.06618 80.8039 0.579043 77.7547L12.8565 55L0.579035 32.2453C-1.06618 29.1961 0.990344 25.3846 4.28078 25.3846H28.8357L41.2983 2.2869ZM15.3116 32.2453H20.2091V32.2317H33.705V32.2453H56.25V32.2384H69.75V32.2453H74.6893C78.0459 32.2453 80.221 35.5757 78.7024 38.3901L78.0733 39.5562L78.0894 39.5639L69.7335 54.9887L69.74 55.0008L69.7254 55.0279L73.4351 61.8731L73.4415 61.8611L78.7016 71.6099C80.2201 74.4243 78.0451 77.7547 74.6884 77.7547H69.75V77.7616H56.25V77.7547H32.8503V77.7616H19.3503V77.7547H15.3107C11.9541 77.7547 9.77903 74.4243 11.2976 71.6099L14.813 65.0946L20.2315 54.9612L14.04 43.5331L14.0665 43.5204L11.2984 38.3901C9.77988 35.5757 11.9549 32.2453 15.3116 32.2453ZM36.2396 84.6154L40.9873 93.4145C42.654 96.5035 47.3469 96.5035 49.0136 93.4145L53.7612 84.6154H36.2396ZM53.7604 25.3846H36.2388L40.9864 16.5855C42.6531 13.4965 47.346 13.4965 49.0128 16.5855L53.7604 25.3846Z" fill="#AB4CFE" fill-opacity="0.8"/>
<path d="M45.225 67.6923C42.7398 66.4231 38.2295 65.4525 35.1 65.4525C32.0625 65.4525 28.933 65.9004 26.3557 67.0204C26.1716 67.095 26.0795 67.095 25.8955 67.095C25.4352 67.095 24.975 66.7217 24.975 66.3484V44.5475C26.0795 43.8756 27.2761 43.4276 28.6568 43.0543C30.7002 42.5317 32.9461 42.3077 35.1 42.3077C38.6898 42.3077 42.5557 42.905 45.225 44.5475C47.8943 42.905 51.7602 42.3077 55.35 42.3077C57.5039 42.3077 59.7498 42.5317 61.7932 43.0543C63.1739 43.4276 64.3705 43.8756 65.475 44.5475V66.3484C65.475 66.7217 65.0148 67.095 64.5545 67.095C64.3705 67.095 64.2784 67.095 64.0943 67.0204C61.517 65.9004 58.3875 65.4525 55.35 65.4525C52.2205 65.4525 47.7102 66.4231 45.225 67.6923ZM43.3841 46.7873C40.8805 45.8914 37.5668 45.2941 35.1 45.2941C32.8909 45.2941 30.6818 45.5181 28.6568 46.0407V63.2127C30.6818 62.69 32.8909 62.4661 35.1 62.4661C37.5668 62.4661 40.8805 63.0633 43.3841 63.9593V46.7873ZM47.0659 63.9593C49.5695 63.0633 52.8832 62.4661 55.35 62.4661C57.5591 62.4661 59.7682 62.69 61.7932 63.2127V46.0407C59.7682 45.5181 57.5591 45.2941 55.35 45.2941C52.8832 45.2941 49.5695 45.8914 47.0659 46.7873V63.9593Z" fill="#FFDC34" fill-opacity="0.75"/>
</svg>
