<svg width="421" height="495" viewBox="0 0 421 495" fill="none" xmlns="http://www.w3.org/2000/svg">
<path fill-rule="evenodd" clip-rule="evenodd" d="M193.184 10.291C200.88 -3.43037 220.12 -3.43034 227.816 10.2911L286.113 114.231H400.975C416.367 114.231 425.987 131.383 418.291 145.104L360.86 247.5L418.291 349.896C425.987 363.617 416.367 380.769 400.975 380.769H286.113L227.816 484.709C220.12 498.43 200.88 498.43 193.184 484.709L134.887 380.769H20.0246C4.63261 380.769 -4.98734 363.617 2.70864 349.896L60.1399 247.5L2.7086 145.104C-4.98734 131.383 4.63261 114.231 20.0246 114.231H134.887L193.184 10.291ZM71.6242 145.104H94.5338V145.042H157.664V145.104H263.125V145.073H326.275V145.104H349.38C365.081 145.104 375.256 160.091 368.152 172.755L365.209 178.003L365.285 178.037L326.198 247.449L326.228 247.504L326.16 247.626L343.513 278.429L343.543 278.375L368.149 322.245C375.252 334.909 365.077 349.896 349.376 349.896H326.275V349.927H263.125V349.896H153.666V349.927H90.5164V349.896H71.6203C55.9187 349.896 45.7441 334.909 52.8475 322.245L69.2919 292.926L94.6385 247.325L65.6758 195.899L65.7999 195.842L52.8515 172.755C45.7481 160.091 55.9226 145.104 71.6242 145.104ZM169.521 380.769L191.729 420.365C199.526 434.266 221.478 434.266 229.275 420.365L251.483 380.769H169.521ZM251.479 114.231H169.517L191.725 74.6348C199.522 60.7341 221.474 60.7341 229.271 74.6348L251.479 114.231Z" fill="#AB4CFE" fill-opacity="0.8"/>
<path d="M211.552 304.615C199.927 298.904 178.829 294.536 164.19 294.536C149.981 294.536 135.342 296.552 123.286 301.592C122.425 301.928 121.994 301.928 121.133 301.928C118.98 301.928 116.827 300.248 116.827 298.568V200.464C121.994 197.44 127.592 195.424 134.05 193.744C143.609 191.393 154.115 190.385 164.19 190.385C180.982 190.385 199.066 193.072 211.552 200.464C224.039 193.072 242.123 190.385 258.915 190.385C268.99 190.385 279.496 191.393 289.055 193.744C295.513 195.424 301.111 197.44 306.277 200.464V298.568C306.277 300.248 304.125 301.928 301.972 301.928C301.111 301.928 300.68 301.928 299.819 301.592C287.763 296.552 273.124 294.536 258.915 294.536C244.276 294.536 223.178 298.904 211.552 304.615ZM202.941 210.543C191.23 206.511 175.729 203.824 164.19 203.824C153.856 203.824 143.523 204.831 134.05 207.183V284.457C143.523 282.105 153.856 281.097 164.19 281.097C175.729 281.097 191.23 283.785 202.941 287.817V210.543ZM220.164 287.817C231.875 283.785 247.376 281.097 258.915 281.097C269.249 281.097 279.582 282.105 289.055 284.457V207.183C279.582 204.831 269.249 203.824 258.915 203.824C247.376 203.824 231.875 206.511 220.164 210.543V287.817Z" fill="#FFDC34" fill-opacity="0.75"/>
</svg>
